<?xml version="1.0" encoding="utf-8"?>
<!-- Generator: Adobe Illustrator 21.0.0, SVG Export Plug-In . SVG Version: 6.00 Build 0)  -->
<svg version="1.1" id="图层_1" xmlns="http://www.w3.org/2000/svg" xmlns:xlink="http://www.w3.org/1999/xlink" x="0px" y="0px"
	 viewBox="0 0 99 42" style="enable-background:new 0 0 99 42;" xml:space="preserve">
<style type="text/css">
	.st0{fill:#007FF5;}
	.st1{fill:#222734;}
</style>
<path id="形状" class="st0" d="M47.2,6.1c5.5,0,10,4.5,10,10c0,0,0,0,0,0.1v9.6h-5v-1c-1.5,0.9-3.2,1.3-5,1.3
	c-1.7,0-3.5-0.5-5-1.3l-2.5-1.4l2.5-4.3l2.5,1.4c0.8,0.4,1.6,0.7,2.5,0.7c2.7,0,5-2.2,5-5c0-2.8-2.2-5-5-5c-1.8,0-3.4,1-4.3,2.5
	l-4.3,7.5c-1.3,2.3-3.5,4-6.1,4.7s-5.3,0.3-7.6-1s-4-3.5-4.7-6.1c-0.7-2.6-0.3-5.3,1-7.6s3.5-4,6.1-4.7s5.3-0.3,7.6,1
	c0.8,0.5,1.5,1,2.1,1.6l-2.7,4.7L33.6,15c-0.3,0.6-0.9,1-1.5,1.2c-0.7,0.2-1.3,0.1-1.9-0.3c-1.2-0.7-1.6-2.2-0.9-3.4l0.1-0.3
	c0.1-0.1,0.1-0.2,0.1-0.3c0-0.4-0.3-0.7-0.7-0.7c0,0-0.1,0-0.1,0c-1.3,0.3-2.5,1.2-3.1,2.4C24.2,16,25,19,27.4,20.4
	c2.4,1.4,5.4,0.6,6.8-1.8l0.1-0.2l4.2-7.3C40.4,8,43.6,6.1,47.2,6.1z M93.1,0.4h5v25.3h-5V0.4z M15.1,17.3c0,0.1,0,0.2,0.1,0.3
	l4.8,8.3h-5.8l-4.3-7.4l-0.2-0.3l-1.5-2.6l-0.4-0.8c-0.1-0.1-0.1-0.2-0.1-0.4c0-0.4,0.3-0.7,0.7-0.7h1.2c1.1,0,2.3-0.5,3.1-1.3
	S14,10.5,14,9.4s-0.5-2.3-1.3-3.1S10.8,5,9.6,5H5V26H0V0.3h10c2.4,0,4.7,1,6.3,2.6s2.6,4,2.6,6.4v0.1c0,2.9-1.4,5.6-3.8,7.3
	C15.1,17,15.1,17.1,15.1,17.3z M86.1,25.5H86c-0.8-4.1-3.2-7.8-6.7-10.2l-6,10.4h-6.1l7.3-12.6c-1.4-0.4-2.8-0.6-4.3-0.6H70l2.8-4.8
	c1.4,0.2,2.9,0.5,4.2,1l3.6-6.3c0.7-1.2,2-2,3.4-2h7.1v25.3h-5V25.5z M81.8,11c1.6,1.1,3.1,2.3,4.4,3.8V6.1h-1.1
	c-0.3,0-0.5,0.1-0.7,0.4L81.8,11z M64.5,25.7c-3,0-5.3-3.1-5.3-6V0.1h5.3v16.9c0,2.1,1.5,3.8,3.1,4.1l-2.7,4.7L64.5,25.7L64.5,25.7z
	"/>
<path id="合并形状_1_" class="st1" d="M63,36.1l0.7-0.6l1,1.2L64,37.2L63,36.1z M61.1,33.3c-0.3,0.3-0.7,0.4-1.1,0.4h-0.1v-0.9
	c0.5,0,0.8-0.3,0.8-0.8h0.9v0.1c0,0.1,0,0.2,0,0.2h3.1v0.9L61.1,33.3L61.1,33.3z M62.8,35.2c-0.3,1.2-1.5,2.1-2.7,2.1h-0.3v-0.9h0.3
	c0.8,0,1.6-0.5,1.8-1.2h-1.6v-0.9H62v-0.8h0.9v0.8h1.6v0.9H62.8z M60.7,42v-4.6h7.6v3.3c0,0.7-0.6,1.3-1.3,1.3H60.7z M61.6,38.3v1
	h5.9v-1H61.6z M61.6,40.1v1h5.2c0.5,0,0.8-0.3,0.8-0.8v-0.2H61.6z M65,37v-4.6h4.1v3.3c0,0.4-0.1,0.7-0.4,0.9
	c-0.2,0.2-0.6,0.4-0.9,0.4H65z M65.9,33.3v2.9h1.6c0.5,0,0.8-0.3,0.8-0.8v-2.1H65.9z"/>
<path id="形状_1_" class="st1" d="M32.5,35.8l1,1.1l-0.6,0.5l-1-1.1L32.5,35.8z M39.7,38.4h-3.9c1,1,2.4,1.7,4.1,2.4l-0.3,0.8
	c-1.7-0.7-3.1-1.5-4.2-2.5v3h-0.9v-3.1c-1,1-2.5,2-4.2,2.7l-0.3-0.8c1.6-0.6,3-1.5,3.8-2.4h-3.6v-0.9h4.4v-1.8h-3.7v-0.9h3.7v-1h0.8
	v1h3.6v0.9h-3.7v1.8h4.4L39.7,38.4L39.7,38.4z M32.4,32.1h0.8v0.6h3.3v-0.6h0.8v0.6h2.3v0.9h-2.3v0.9h-0.8v-0.9h-3.3v0.9h-0.8v-0.9
	h-2.3v-0.9h2.3V32.1z M37.1,37.4l-0.6-0.5l0.9-1.1l0.6,0.5L37.1,37.4z"/>
<path id="形状_2_" class="st1" d="M9.9,38.4v0.8V41c0,0.5-0.4,0.9-0.9,0.9H8.5V41h0.2C8.9,41,9,40.9,9,40.7v-1.5v-0.4
	C9,38.3,8.8,38,8.3,38H8v3.9H7.2V38H6.3v3.9H5.4V38h-1v3.9H3.5v-4.8h2.7l0.1-0.7H3.5v-0.9h6.4v0.9H7.2l-0.1,0.7h0.8h0.7
	c0.4,0,0.7,0.1,0.9,0.4C9.8,37.7,9.9,38.1,9.9,38.4z M3.8,32.3h0.9v1.8h1.5v-2h0.9v2h0.8c0.5,0,0.7-0.3,0.8-0.7v-1.1h0.9v1.2v0.2
	c0,0.4-0.1,0.7-0.4,0.9s-0.6,0.4-0.9,0.4H3.7L3.8,32.3L3.8,32.3z M0,33.2v-0.9h3.3v0.9H2.1v2.4H3v0.9H2.1v4.1l0.8-0.2l0.2,0.9
	L0.2,42L0,41.1l1.2-0.3v-4.3h-1v-0.9h1v-2.4H0z"/>
<path id="合并形状-copy-88" class="st1" d="M97.2,37.8h-7.8V37h7.8v-0.5h-7.8v-0.7h1.7v-0.4h-1.7v-0.8h1.7v-0.4h-1.7v-0.8h1.7
	V33h-1.7v-0.7h1.7v-0.3h0.8v0.3h1.6V33h-1.6v0.5h1.6v0.8h-1.6v0.4h1.6v0.8h-1.6v0.4h3.7v-0.4H94v-0.8h1.7v-0.4H94v-0.8h1.7V33H94
	v-0.7h1.7v-0.3h0.8v0.3h1.6V33h-1.6v0.5h1.6v0.8h-1.6v0.4h1.6v0.8h-1.6v0.4h1.6v2c0,0.7-0.6,1.2-1.2,1.2h-7.4v-0.8h7.1
	C96.9,38.3,97.2,38.1,97.2,37.8z M97.5,40h0.9v0.8c0,0.2-0.1,0.5-0.3,0.6s-0.4,0.3-0.6,0.3L97.5,40L97.5,40z M89.1,41.7v-1.9H90v1.1
	c0,0.2-0.1,0.5-0.3,0.6C89.6,41.6,89.3,41.7,89.1,41.7z M95.8,40.7v-0.4h0.9v0.4c0,0.4-0.1,0.7-0.4,0.9c-0.2,0.2-0.6,0.4-0.9,0.4h-3
	c-0.4,0-0.7-0.1-0.9-0.4c-0.2-0.2-0.4-0.6-0.4-0.9v-1.2H92v1c0,0.4,0.3,0.7,0.7,0.7h2.6C95.5,41.1,95.8,41,95.8,40.7z M94.6,40.6h-1
	c-0.2,0-0.4-0.2-0.4-0.4v-0.4h1.7v0.5c0,0.1,0,0.2-0.1,0.2C94.7,40.5,94.7,40.6,94.6,40.6z"/>
</svg>
